<svg width="25" height="24" viewBox="0 0 25 24" fill="none" xmlns="http://www.w3.org/2000/svg">
<path d="M7.03476 7.96942C7.3491 5.14032 9.74041 3 12.5869 3C15.4334 3 17.8247 5.14032 18.1391 7.96942L18.3909 10.2356C18.3941 10.2645 18.3957 10.279 18.3973 10.2933C18.5263 11.4169 18.892 12.5005 19.4705 13.4725C19.4778 13.4849 19.4853 13.4973 19.5003 13.5222L20.0783 14.4856C20.6028 15.3599 20.8651 15.797 20.8085 16.1559C20.7708 16.3946 20.6479 16.6117 20.4626 16.7668C20.184 17 19.6742 17 18.6547 17H6.51914C5.4996 17 4.98982 17 4.71125 16.7668C4.52589 16.6117 4.403 16.3946 4.36532 16.1559C4.30871 15.797 4.57098 15.3599 5.09553 14.4856L5.67357 13.5222C5.68852 13.4973 5.696 13.4849 5.70336 13.4725C6.28179 12.5005 6.64755 11.4169 6.7765 10.2933C6.77814 10.279 6.77974 10.2645 6.78295 10.2356L7.03476 7.96942Z" stroke="#33363F" stroke-width="2"/>
<path d="M8.58691 17C8.58691 17.5253 8.69038 18.0454 8.8914 18.5307C9.09241 19.016 9.38705 19.457 9.75849 19.8284C10.1299 20.1999 10.5709 20.4945 11.0562 20.6955C11.5415 20.8965 12.0616 21 12.5869 21C13.1122 21 13.6323 20.8965 14.1176 20.6955C14.603 20.4945 15.0439 20.1999 15.4153 19.8284C15.7868 19.457 16.0814 19.016 16.2824 18.5307C16.4835 18.0454 16.5869 17.5253 16.5869 17" stroke="#33363F" stroke-width="2" stroke-linecap="round"/>
</svg>
