<svg width="33" height="32" viewBox="0 0 33 32" fill="none" xmlns="http://www.w3.org/2000/svg">
<path d="M16.5864 3C18.0227 3 19.3819 3.36189 20.5737 4.00098C20.0989 4.47755 19.7082 5.03777 19.4263 5.6582C18.5667 5.23606 17.6015 5 16.5864 5C13.3008 5.00024 10.5401 7.47079 10.1772 10.7363L9.84131 13.7578C9.77472 14.3571 9.73695 14.7082 9.67139 15.0547C9.51662 15.8722 9.24883 16.6651 8.87646 17.4092C8.71864 17.7245 8.53629 18.0269 8.22607 18.5439L7.26123 20.1523C6.8411 20.8526 6.58684 21.2806 6.45654 21.5947C6.45441 21.5999 6.4527 21.6054 6.45068 21.6104C6.45615 21.6112 6.46251 21.6133 6.46826 21.6143C6.80465 21.6641 7.30253 21.667 8.11865 21.667H25.0542C25.8702 21.667 26.3681 21.664 26.7046 21.6143C26.71 21.6135 26.716 21.6112 26.7212 21.6104C26.7192 21.6055 26.7184 21.5998 26.7163 21.5947C26.586 21.2806 26.3318 20.8526 25.9116 20.1523L24.9468 18.5439C24.6366 18.027 24.4542 17.7245 24.2964 17.4092C23.9241 16.6651 23.6562 15.8722 23.5015 15.0547C23.4359 14.7082 23.3981 14.3571 23.3315 13.7578L23.3042 13.5186C23.7166 13.614 24.146 13.666 24.5874 13.666C24.8384 13.666 25.0852 13.6469 25.3276 13.6152C25.3914 14.188 25.4212 14.4401 25.4673 14.6836C25.5876 15.3191 25.7951 15.9352 26.0845 16.5137C26.2003 16.7451 26.3363 16.9735 26.6616 17.5156L27.6265 19.123C28.0119 19.7654 28.3622 20.3451 28.563 20.8291C28.7665 21.3198 28.9359 21.9902 28.561 22.6523C28.1861 23.3144 27.524 23.5148 26.9985 23.5928C26.4803 23.6696 25.8031 23.667 25.0542 23.667H8.11865C7.36973 23.667 6.69254 23.6696 6.17432 23.5928C5.64891 23.5148 4.98665 23.3143 4.61182 22.6523C4.23711 21.9903 4.40643 21.3197 4.60986 20.8291C4.8106 20.3451 5.16097 19.7654 5.54639 19.123L6.51123 17.5156C6.83652 16.9735 6.97255 16.7451 7.08838 16.5137C7.37783 15.9352 7.5852 15.3192 7.70557 14.6836C7.75371 14.4292 7.78417 14.1656 7.854 13.5371L8.18994 10.5156C8.66532 6.23722 12.2817 3.00024 16.5864 3ZM22.9526 5.89551C24.0512 7.15373 24.7862 8.74515 24.9829 10.5156L24.9956 10.6318C24.8624 10.6524 24.7264 10.666 24.5874 10.666L24.314 10.6523C23.7707 10.5971 23.2775 10.3766 22.8804 10.0449C22.7014 9.23936 22.373 8.49492 21.9282 7.83789C21.9757 7.04813 22.3652 6.35239 22.9526 5.89551Z" fill="#404040"/>
<path d="M12.7232 23.5529C12.9511 24.8287 13.4533 25.9561 14.1519 26.7601C14.8504 27.5642 15.7064 28 16.5869 28C17.4674 28 18.3234 27.5642 19.022 26.7601C19.7205 25.9561 20.2227 24.8287 20.4506 23.5529" stroke="#404040" stroke-width="2" stroke-linecap="round"/>
<circle cx="24.587" cy="8" r="3.16667" fill="#FF5F57" stroke="#FF5F57"/>
</svg>
