<svg width="73" height="72" viewBox="0 0 73 72" fill="none" xmlns="http://www.w3.org/2000/svg">
<circle cx="36.5869" cy="27" r="5.3" stroke="#FEBC2F" stroke-width="1.4" stroke-linecap="round"/>
<path d="M46.997 24.35C47.6998 23.1327 48.8574 22.2444 50.2152 21.8806C51.5729 21.5168 53.0196 21.7072 54.2369 22.4101C55.4542 23.1129 56.3425 24.2705 56.7063 25.6283C57.0701 26.986 56.8797 28.4327 56.1768 29.65C55.474 30.8673 54.3164 31.7556 52.9587 32.1194C51.6009 32.4832 50.1542 32.2928 48.9369 31.5899C47.7196 30.8871 46.8313 29.7295 46.4675 28.3717C46.1037 27.014 46.2942 25.5673 46.997 24.35L46.997 24.35Z" stroke="#27C840" stroke-width="1.4"/>
<path d="M16.997 24.35C17.6998 23.1327 18.8574 22.2444 20.2152 21.8806C21.5729 21.5168 23.0196 21.7072 24.2369 22.4101C25.4542 23.1129 26.3425 24.2705 26.7063 25.6283C27.0701 26.986 26.8797 28.4327 26.1768 29.65C25.474 30.8673 24.3164 31.7556 22.9587 32.1194C21.6009 32.4832 20.1542 32.2928 18.9369 31.5899C17.7196 30.8871 16.8313 29.7295 16.4675 28.3717C16.1037 27.014 16.2942 25.5673 16.997 24.35L16.997 24.35Z" stroke="#0088FF" stroke-width="1.4"/>
<path d="M50.0873 37.5L50.0873 36.8H50.0873V37.5ZM62.0209 48.5078L62.7169 48.4331L62.7169 48.4331L62.0209 48.5078ZM46.0873 49.5L46.087 48.8L46.0873 50.2V49.5ZM47.0287 48.5068L47.7256 48.4413L47.7256 48.4413L47.0287 48.5068ZM42.8871 39.5566L42.4802 38.9871L41.7349 39.5195L42.4443 40.0988L42.8871 39.5566ZM50.0873 37.5L50.0873 38.2C54.7974 38.2001 57.4928 40.1216 59.0733 42.3329C60.682 44.5838 61.1761 47.1969 61.3249 48.5825L62.0209 48.5078L62.7169 48.4331C62.557 46.9438 62.0236 44.0531 60.2123 41.5189C58.3727 38.9451 55.2557 36.8001 50.0873 36.8L50.0873 37.5ZM62.0209 48.5078L61.3249 48.5825C61.3313 48.6425 61.313 48.6883 61.2775 48.7254C61.2389 48.7657 61.1737 48.8 61.0863 48.8V49.5V50.2C62.009 50.2 62.825 49.4402 62.7169 48.4331L62.0209 48.5078ZM61.0863 49.5V48.8H46.0873V49.5V50.2H61.0863V49.5ZM46.0873 49.5L46.0875 50.2C47.0129 50.1996 47.8194 49.4396 47.7256 48.4413L47.0287 48.5068L46.3318 48.5723C46.3377 48.6355 46.3177 48.6849 46.28 48.7241C46.2398 48.7659 46.1738 48.8 46.087 48.8L46.0873 49.5ZM47.0287 48.5068L47.7256 48.4413C47.5393 46.4591 46.7562 41.8123 43.3298 39.0144L42.8871 39.5566L42.4443 40.0988C45.4012 42.5133 46.1503 46.642 46.3318 48.5723L47.0287 48.5068ZM42.8871 39.5566L43.294 40.1262C44.8776 38.9949 47.0589 38.2 50.0873 38.2V37.5V36.8C46.7989 36.8 44.3258 37.6685 42.4802 38.9871L42.8871 39.5566Z" fill="#27C840"/>
<path d="M23.0874 37.5L23.0874 36.8H23.0874V37.5ZM30.2866 39.5566L30.7294 40.0988L31.4388 39.5195L30.6935 38.9871L30.2866 39.5566ZM26.145 48.5068L25.4481 48.4413L25.4481 48.4413L26.145 48.5068ZM27.0864 49.5V50.2L27.0867 48.8L27.0864 49.5ZM11.1528 48.5078L10.4568 48.4331L10.4568 48.4331L11.1528 48.5078ZM23.0874 37.5L23.0874 38.2C26.1154 38.2001 28.2962 38.9949 29.8797 40.1262L30.2866 39.5566L30.6935 38.9871C28.848 37.6686 26.3756 36.8001 23.0874 36.8L23.0874 37.5ZM30.2866 39.5566L29.8439 39.0144C26.4175 41.8123 25.6344 46.4591 25.4481 48.4413L26.145 48.5068L26.8419 48.5723C27.0234 46.642 27.7725 42.5133 30.7294 40.0988L30.2866 39.5566ZM26.145 48.5068L25.4481 48.4413C25.3543 49.4396 26.1608 50.1997 27.0862 50.2L27.0864 49.5L27.0867 48.8C26.9999 48.8 26.9339 48.7659 26.8937 48.7241C26.856 48.6849 26.836 48.6356 26.8419 48.5723L26.145 48.5068ZM27.0864 49.5V48.8H12.0874V49.5V50.2H27.0864V49.5ZM12.0874 49.5V48.8C12 48.8 11.9348 48.7657 11.8962 48.7254C11.8607 48.6883 11.8424 48.6425 11.8488 48.5825L11.1528 48.5078L10.4568 48.4331C10.3487 49.4402 11.1647 50.2 12.0874 50.2V49.5ZM11.1528 48.5078L11.8488 48.5825C11.9976 47.1969 12.4918 44.5837 14.1008 42.3328C15.6814 40.1215 18.3771 38.2 23.0874 38.2V37.5V36.8C17.9188 36.8 14.8015 38.9449 12.9618 41.5187C11.1503 44.053 10.6167 46.9437 10.4568 48.4331L11.1528 48.5078Z" fill="#0088FF"/>
<path d="M36.5869 37.5C45.2304 37.5 46.7587 45.6316 47.0289 48.5072C47.0805 49.0571 46.6392 49.5 46.0869 49.5H27.0869C26.5346 49.5 26.0933 49.0571 26.145 48.5072C26.4152 45.6316 27.9435 37.5 36.5869 37.5Z" stroke="#FEBC2F" stroke-width="1.4" stroke-linecap="round"/>
<path d="M56.0869 64.5H63.5869C64.4153 64.5 65.0869 63.8284 65.0869 63V55.5" stroke="#27C840" stroke-width="1.4" stroke-linecap="round"/>
<path d="M17.0869 7.5H9.58691C8.75849 7.5 8.08691 8.17157 8.08691 9V16.5" stroke="#0088FF" stroke-width="1.4" stroke-linecap="round"/>
</svg>
